<?xml version="1.0" standalone="no"?>
<!DOCTYPE svg PUBLIC "-//W3C//DTD SVG 20010904//EN"
 "http://www.w3.org/TR/2001/REC-SVG-20010904/DTD/svg10.dtd">
<svg version="1.0" xmlns="http://www.w3.org/2000/svg"
 width="400.000000pt" height="300.000000pt" viewBox="0 0 400.000000 300.000000"
 preserveAspectRatio="xMidYMid meet">

<g transform="translate(0.000000,300.000000) scale(0.100000,-0.100000)"
fill="#000000" stroke="none">
<path d="M2081 2669 c-29 -5 -79 -20 -110 -32 l-57 -23 -49 23 c-65 30 -173
32 -238 4 -61 -26 -113 -75 -145 -135 -23 -44 -27 -63 -27 -136 0 -91 15 -133
69 -197 l25 -30 -220 -514 c-208 -485 -220 -517 -220 -576 0 -138 100 -230
241 -220 63 4 77 11 465 227 220 123 423 232 450 243 79 30 209 21 296 -21
118 -57 205 -173 230 -307 21 -112 -25 -255 -108 -339 l-38 -39 -5 229 c-4
191 -8 234 -22 260 -22 39 -90 99 -129 113 l-29 10 0 -349 0 -349 -33 -6 c-18
-4 -51 -5 -72 -3 l-40 3 -3 353 c-1 195 -6 352 -10 350 -4 -2 -44 -23 -90 -48
l-82 -45 0 -308 0 -308 -67 3 -68 3 -3 263 c-1 144 -4 262 -7 262 -3 0 -43
-21 -90 -47 l-85 -48 0 -217 0 -218 -70 0 -70 0 0 175 c0 96 -3 175 -6 175 -3
0 -44 -21 -90 -46 l-84 -46 0 -130 0 -130 -32 7 c-18 4 -50 14 -70 22 l-38 15
0 88 0 88 -56 7 c-80 10 -169 59 -220 122 l-43 52 -6 -54 c-9 -68 15 -189 52
-264 33 -70 132 -170 201 -205 109 -55 138 -57 696 -54 494 4 513 4 576 25
133 45 253 135 325 243 220 331 64 766 -320 892 -16 5 -77 13 -135 16 l-105 7
0 116 c0 142 9 159 87 159 l48 0 0 -85 c0 -47 3 -85 8 -85 14 -1 137 -28 155
-35 16 -7 17 3 17 114 l0 120 28 15 c35 19 95 82 118 126 27 49 34 422 10 502
-24 82 -80 147 -160 188 l-69 35 -211 2 c-116 1 -235 -3 -265 -8z m459 -191
c72 -38 80 -64 80 -260 0 -241 -6 -249 -195 -258 -134 -6 -180 -22 -230 -82
-51 -60 -58 -91 -63 -269 l-4 -165 -194 -109 c-109 -60 -213 -111 -236 -115
-91 -17 -201 45 -229 128 -24 72 -9 122 145 485 109 256 147 354 142 372 -3
13 -26 38 -51 55 -58 40 -75 66 -75 113 0 31 7 46 34 73 47 47 92 46 166 -1
30 -19 62 -35 71 -35 10 0 50 16 91 35 99 47 133 53 333 54 159 1 174 -1 215
-21z"/>
<path d="M2071 2304 c-26 -22 -31 -33 -31 -69 0 -65 33 -100 95 -100 62 0 95
35 95 100 0 36 -5 47 -31 69 -19 17 -43 26 -64 26 -21 0 -45 -9 -64 -26z"/>
</g>
</svg>
